# Blender v2.79 (sub 0) OBJ File: 'Append-Tent.blend'
# www.blender.org
mtllib Tent.mtl
o Cube.012_Cube.026
v -2.960179 -0.036247 1.633824
v -2.839580 1.629250 1.279373
v -2.960179 -0.036247 -0.485398
v -2.839580 1.629250 -0.130947
v 4.679383 -0.036247 1.633824
v 4.558784 1.629250 1.279373
v 4.679383 -0.036247 -0.485398
v 4.558784 1.629250 -0.130947
v -2.650037 3.037499 1.053036
v -2.650037 3.037499 0.095390
v 4.369241 3.037499 0.095390
v 4.369241 3.037499 1.053036
v -2.738281 5.011680 0.685746
v -2.738281 5.011680 0.462680
v 4.457485 5.011680 0.462680
v 4.457485 5.011680 0.685746
v -2.741730 5.502414 0.574213
v 4.460934 5.502414 0.574213
v 4.554482 1.728621 -0.068651
v 4.664426 0.210260 -0.391789
v 4.664426 0.210260 1.540215
v 4.554482 1.728621 1.217077
v 4.381683 3.012462 0.137691
v 4.381683 3.012462 1.010736
v 4.462131 4.812237 0.472534
v 4.462131 4.812237 0.675893
v 4.465276 5.259619 0.574213
v 4.265002 1.717387 -0.068651
v 4.374948 0.199026 -0.391789
v 4.374948 0.199026 1.540215
v 4.265002 1.717387 1.217077
v 4.092204 3.001228 0.137691
v 4.092204 3.001228 1.010736
v 4.172652 4.801003 0.472534
v 4.172652 4.801003 0.675893
v 4.175797 5.248384 0.574213
vn -0.9974 0.0722 0.0000
vn 0.0000 0.2082 -0.9781
vn 0.9938 0.0868 0.0699
vn 0.0000 0.2082 0.9781
vn 0.0000 -1.0000 0.0000
vn 0.0000 0.1587 0.9873
vn 0.9686 0.1609 -0.1897
vn 0.0000 0.1587 -0.9873
vn 0.9939 0.0178 0.1089
vn -0.9911 0.1334 0.0000
vn 0.9607 0.0087 0.2774
vn -0.9990 -0.0447 0.0000
vn 0.0000 0.1829 0.9831
vn 0.0000 0.1829 -0.9831
vn -1.0000 -0.0070 0.0000
vn 0.0000 0.2216 0.9751
vn 0.0000 0.2216 -0.9751
vn 0.0086 -0.2217 0.9751
vn 0.0081 -0.2076 -0.9782
vn 0.0061 -0.1579 0.9874
vn 0.0071 -0.1832 -0.9830
vn 0.9686 0.1609 0.1897
vn 0.9938 0.0868 -0.0699
vn 0.9982 0.0606 0.0000
vn 0.9607 0.0087 -0.2774
vn 0.9939 0.0178 -0.1089
vn 0.0081 -0.2076 0.9782
vn 0.0086 -0.2217 -0.9751
vn -0.0388 0.9992 0.0000
vn 0.0071 -0.1832 0.9830
vn 0.0061 -0.1579 -0.9874
vn 0.9974 0.0722 0.0000
vn 0.9990 -0.0447 0.0000
vn 0.9911 0.1334 0.0000
vn 1.0000 -0.0070 0.0000
usemtl Red
s off
f 1//1 2//1 4//1 3//1
f 3//2 4//2 8//2 7//2
f 6//3 5//3 21//3 22//3
f 5//4 6//4 2//4 1//4
f 3//5 7//5 5//5 1//5
f 2//6 6//6 12//6 9//6
f 8//7 11//7 23//7 19//7
f 8//8 4//8 10//8 11//8
f 18//9 16//9 26//9 27//9
f 4//10 2//10 9//10 10//10
f 16//11 12//11 24//11 26//11
f 10//12 9//12 13//12 14//12
f 9//13 12//13 16//13 13//13
f 11//14 10//14 14//14 15//14
f 14//15 13//15 17//15
f 13//16 16//16 18//16 17//16
f 15//17 14//17 17//17 18//17
f 25//18 27//18 36//18 34//18
f 22//19 21//19 30//19 31//19
f 19//20 23//20 32//20 28//20
f 26//21 24//21 33//21 35//21
f 12//22 6//22 22//22 24//22
f 7//23 8//23 19//23 20//23
f 5//24 7//24 20//24 21//24
f 11//25 15//25 25//25 23//25
f 15//26 18//26 27//26 25//26
f 20//27 19//27 28//27 29//27
f 27//28 26//28 35//28 36//28
f 21//29 20//29 29//29 30//29
f 23//30 25//30 34//30 32//30
f 24//31 22//31 31//31 33//31
usemtl Black
f 29//32 28//32 31//32 30//32
f 33//33 32//33 34//33 35//33
f 31//34 28//34 32//34 33//34
f 35//35 34//35 36//35
