# Blender v2.79 (sub 0) OBJ File: 'Append-TreeDead.blend'
# www.blender.org
mtllib TreeDead.mtl
o Cylinder.004_Cylinder.005
v 0.065594 -0.022664 -0.923991
v 0.065594 7.239963 -0.803334
v 0.727339 -0.022664 -0.649887
v 0.642022 7.239963 -0.564569
v 1.001444 -0.022664 0.011859
v 0.808325 7.457196 0.126816
v 0.727339 -0.022664 0.673605
v 0.633994 7.457196 0.547689
v 0.065594 -0.022664 0.947709
v 0.213121 7.457196 0.722020
v -0.596152 -0.022664 0.673605
v -0.510835 7.239963 0.588287
v -0.870256 -0.022664 0.011859
v -0.749599 7.239963 0.011859
v -0.596152 -0.022664 -0.649887
v -0.510835 7.239963 -0.564569
v 2.762504 13.313871 -0.212887
v 2.918032 13.281202 -0.147060
v 2.982453 13.267670 0.011861
v 2.918032 13.281202 0.170783
v 2.762504 13.313871 0.236610
v 2.606977 13.346540 0.170783
v 2.542556 13.360072 0.011861
v 2.606977 13.346540 -0.147060
v 0.027181 10.285277 0.011859
v 0.174924 10.223231 -0.376250
v 0.888289 9.923649 -0.376250
v 1.036031 9.861603 0.011859
v 0.531606 10.073441 0.560729
v 0.174924 10.223231 0.399969
v 0.531607 10.073441 -0.537010
v 0.888289 9.923649 0.399969
v 0.065594 0.826214 -0.803334
v 0.642022 0.826214 -0.564569
v 0.880786 0.826214 0.011859
v 0.642022 0.826214 0.588287
v 0.065594 0.826214 0.827051
v -0.510835 0.826214 0.588287
v -0.749599 0.826214 0.011859
v -0.510835 0.826214 -0.564569
v -0.167955 8.731598 -0.470409
v 0.911050 8.662056 0.126816
v -0.167955 8.731598 0.494128
v 0.298600 8.656703 -0.670172
v 0.723898 8.744396 0.478940
v -0.331784 9.064815 0.011859
v 0.765155 8.581807 -0.470410
v 0.383248 8.491611 0.624794
v -2.801779 7.954816 0.011859
v -2.667412 7.954816 0.336250
v -2.667412 7.954816 -0.312532
v -2.474453 8.794248 -0.259542
v -2.474453 8.794248 0.283261
v -2.566649 8.981770 0.011859
v -5.246833 9.242679 0.011859
v -5.166670 9.242679 0.205386
v -5.166670 9.242679 -0.181668
v -5.051554 9.743473 -0.150056
v -5.051554 9.743473 0.173774
v -5.106557 9.855346 0.011859
v 1.941466 8.045794 2.848208
v 2.033139 8.045794 2.626892
v 1.720149 8.045794 2.939881
v 2.087157 8.679373 2.626892
v 1.988743 8.744407 2.812057
v 1.809611 8.589745 2.888754
v 3.844169 9.698092 4.842041
v 3.896952 9.698092 4.714612
v 3.716740 9.698092 4.894823
v 3.928054 10.062889 4.714612
v 3.871389 10.100333 4.821224
v 3.768250 10.011284 4.865386
v 2.788931 8.983029 3.877070
v 2.930066 9.104884 3.816641
v 2.718445 8.554458 3.917351
v 3.007605 9.053645 3.670752
v 2.965045 8.554458 3.670752
v 2.892817 8.554458 3.845124
v 1.056427 8.563962 1.077697
v 1.185622 8.498657 0.834619
v 1.114709 7.666916 0.834619
v 0.994364 7.666916 1.125156
v 0.703827 7.666916 1.245500
v 0.821269 8.380996 1.178383
v 1.126307 7.474751 -1.865066
v 0.716253 7.474751 -2.034916
v 0.882007 8.482578 -1.940189
v 1.213901 8.429299 -1.798083
v 1.829476 9.096559 -4.144245
v 1.682184 9.121963 -4.191241
v 1.734318 9.386653 -4.014295
v 1.857027 9.350657 -3.982944
v 1.427473 7.958002 -3.018887
v 1.495989 8.663254 -2.840676
v 1.088412 7.980794 -3.145977
v 1.218064 8.722189 -2.939857
v 0.727976 11.168970 0.011860
v 1.356094 10.697481 -0.323427
v 1.045773 10.820279 0.486028
v 0.735451 10.943076 -0.323427
v 1.484633 10.646617 0.011860
v 0.735451 10.943076 0.347147
v 1.045773 10.820279 -0.462308
v 1.356094 10.697481 0.347147
v -0.655861 11.353987 -0.211263
v -0.900679 10.798403 -0.246414
v -0.655861 11.353987 0.234982
v -0.900679 10.798403 0.270133
v -1.006101 10.814447 0.011860
v -0.697374 11.498551 0.011860
v -1.856818 12.852831 -0.116800
v -1.997988 12.532461 -0.137069
v -1.856818 12.852831 0.140520
v -1.997988 12.532461 0.160789
v -2.058778 12.541714 0.011860
v -1.880756 12.936191 0.011860
v -1.417654 11.902353 -0.058357
v -1.450379 12.016317 0.117534
v -1.610648 11.464377 0.321135
v -1.693754 11.477026 0.117534
v -1.610648 11.464377 -0.086068
v -1.417654 11.902353 0.293425
v 0.065594 6.018260 -0.803334
v 0.642022 6.018260 -0.564569
v 0.822127 6.194113 0.104919
v 0.635523 6.194113 0.555422
v 0.185020 6.194113 0.742027
v -0.510835 6.018260 0.588287
v -0.749599 6.018260 0.011859
v -0.510835 6.018260 -0.564569
v 1.998787 6.743345 -0.461138
v 1.912100 6.630111 -0.821530
v 1.912100 5.993285 -0.821530
v 2.005982 6.084951 -0.472553
v 2.984268 6.751050 -0.714217
v 2.897581 6.637815 -1.074609
v 2.897581 6.000989 -1.074609
v 2.991463 6.092656 -0.725631
v 4.120843 7.282568 -1.064592
v 4.060332 7.203526 -1.316160
v 4.060332 6.758997 -1.316160
v 4.125865 6.822984 -1.072560
v 5.171572 8.506123 -1.455824
v 5.169199 8.478579 -1.525689
v 5.235552 8.374474 -1.525689
v 5.241349 8.399240 -1.458037
vn -0.3827 0.0000 0.9239
vn -0.0308 0.9687 -0.2462
vn -0.9239 -0.0035 -0.3827
vn -0.3827 -0.0061 -0.9239
vn 0.2011 -0.0102 -0.9795
vn 0.9239 0.0000 -0.3827
vn 0.7118 -0.5859 0.3874
vn 0.9239 0.0000 0.3827
vn 0.3827 0.0000 0.9239
vn 0.0000 1.0000 0.0000
vn -0.2056 -0.9786 -0.0000
vn -0.8049 0.4605 0.3743
vn 0.2990 -0.2979 -0.9066
vn 0.2990 -0.2979 0.9066
vn -0.3548 0.1517 0.9226
vn -0.8049 0.4605 -0.3743
vn 0.7118 -0.5859 -0.3874
vn -0.3548 0.1517 -0.9226
vn -0.4023 -0.0019 -0.9155
vn 0.8739 -0.2408 -0.4222
vn -0.9029 0.0753 -0.4232
vn -0.4063 -0.0228 0.9135
vn 0.3637 -0.1440 0.9203
vn 0.2682 -0.0922 -0.9589
vn -0.9545 0.0955 0.2827
vn 0.8739 -0.2408 0.4222
vn 0.3794 -0.1302 0.9160
vn 0.9160 -0.1302 0.3794
vn 0.9160 -0.1302 -0.3794
vn 0.3794 -0.1302 -0.9160
vn -0.3794 -0.1302 -0.9160
vn -0.9160 -0.1302 -0.3794
vn -0.9160 -0.1302 0.3794
vn -0.3794 -0.1302 0.9160
vn 0.0885 -0.0830 -0.9926
vn -0.9729 0.0782 0.2176
vn 0.1997 -0.1143 -0.9732
vn 0.3745 -0.1457 0.9157
vn -0.1800 -0.9823 0.0520
vn -0.2215 0.9708 -0.0917
vn 0.3259 0.9357 -0.1350
vn -0.1850 -0.9632 0.1948
vn 0.0177 -0.0670 0.9976
vn -0.2858 -0.8311 -0.4771
vn 0.0885 -0.0830 0.9926
vn 0.0304 -0.8175 -0.5752
vn 0.3259 0.9357 0.1350
vn 0.0304 -0.8175 0.5751
vn 0.8884 -0.2153 0.4056
vn 0.8884 -0.2153 -0.4056
vn 0.4576 0.8687 -0.1895
vn -0.2858 -0.8311 0.4771
vn 0.0177 -0.0670 -0.9976
vn 0.4576 0.8687 0.1895
vn 0.7874 -0.1848 -0.5880
vn 0.6736 -0.7330 0.0951
vn -0.8938 0.0762 0.4419
vn 0.8604 -0.1861 -0.4745
vn -0.0728 0.9817 -0.1758
vn 0.5577 -0.8002 -0.2205
vn -0.9009 0.0568 -0.4304
vn -0.3799 -0.0232 -0.9248
vn -0.7794 0.0664 0.6230
vn -0.6208 0.7406 -0.2571
vn 0.3522 -0.8086 0.4712
vn -0.2544 0.7470 -0.6142
vn -0.1408 0.9298 -0.3400
vn 0.0049 -0.9427 0.3337
vn -0.3457 0.9273 -0.1432
vn -0.7599 0.0648 0.6468
vn 0.5685 -0.7832 -0.2517
vn 0.7337 -0.1822 -0.6546
vn 0.3984 -0.7901 -0.4659
vn -0.1141 0.9545 -0.2755
vn 0.7528 -0.1832 -0.6322
vn -0.9232 0.0787 0.3763
vn -0.4565 -0.8895 -0.0220
vn -0.3271 0.9352 -0.1355
vn -0.9673 0.1650 -0.1926
vn 0.8830 -0.1857 0.4311
vn -0.0639 0.9860 0.1542
vn -0.9378 0.1092 -0.3295
vn -0.3432 -0.4754 0.8101
vn -0.1706 0.7175 0.6753
vn -0.0287 -0.8483 -0.5287
vn 0.9283 -0.2664 0.2592
vn 0.9478 -0.2025 0.2465
vn -0.0796 -0.9655 -0.2480
vn -0.1178 0.9224 0.3679
vn -0.9684 0.1231 -0.2169
vn -0.3532 0.1507 -0.9233
vn -0.1958 -0.8250 -0.5301
vn -0.8035 0.4595 -0.3786
vn -0.3532 0.1507 0.9233
vn 0.2902 -0.2919 0.9114
vn 0.2902 -0.2919 -0.9114
vn -0.8035 0.4595 0.3786
vn 0.0559 -0.1038 0.9930
vn 0.8966 0.2727 -0.3490
vn -0.9056 -0.4124 0.0987
vn 0.4662 0.8814 0.0761
vn 0.4662 0.8814 -0.0761
vn -0.1958 -0.8250 0.5301
vn 0.0559 -0.1038 -0.9930
vn 0.8388 -0.3854 -0.3846
vn 0.8388 -0.3854 0.3846
vn -0.1369 -0.0023 0.9906
vn -0.8949 -0.4317 -0.1132
vn 0.8794 0.3351 0.3381
vn 0.1069 -0.1096 -0.9882
vn -0.0924 -0.0223 -0.9955
vn 0.6924 0.6803 0.2404
vn -0.5605 -0.7387 -0.3744
vn 0.1162 -0.1136 0.9867
vn -0.4755 -0.7760 0.4144
vn 0.6582 0.7188 -0.2240
vn 0.2962 -0.0110 -0.9551
vn -0.9475 -0.0081 0.3197
vn -0.0682 0.9693 -0.2362
vn 0.1983 0.0000 0.9801
vn -0.4376 0.0108 -0.8991
vn -0.3450 -0.8685 0.3559
vn 0.2034 0.0000 0.9791
vn 0.2487 0.0000 0.9686
vn -0.2488 0.0141 -0.9684
vn 0.0797 -0.9563 0.2813
vn -0.3100 -0.0238 -0.9504
vn -0.3002 0.0133 -0.9538
vn 0.4589 -0.8732 0.1640
vn -0.5548 0.8292 -0.0686
vn -0.8127 -0.5270 0.2487
vn 0.7626 -0.6437 0.0642
vn -0.8106 0.5853 0.0189
vn 0.1571 0.0190 0.9874
usemtl Bark
s off
f 123//1 124//1 4//1 2//1
f 125//2 134//2 133//2 124//2
f 125//3 126//3 8//3 6//3
f 126//4 127//4 10//4 8//4
f 127//5 128//5 12//5 10//5
f 128//6 129//6 14//6 12//6
f 100//7 24//7 23//7 97//7
f 129//8 130//8 16//8 14//8
f 130//9 123//9 2//9 16//9
f 1//10 15//10 13//10 11//10 9//10 7//10 5//10 3//10
f 18//11 19//11 20//11 21//11 22//11 23//11 24//11 17//11
f 101//12 19//12 18//12 98//12
f 102//13 22//13 21//13 99//13
f 103//14 17//14 24//14 100//14
f 98//15 18//15 17//15 103//15
f 104//16 20//16 19//16 101//16
f 97//17 23//17 22//17 102//17
f 99//18 21//18 20//18 104//18
f 48//19 29//19 32//19 45//19
f 46//20 25//20 30//20 43//20
f 45//21 32//21 28//21 42//21
f 47//22 27//22 31//22 44//22
f 44//23 31//23 26//23 41//23
f 43//24 30//24 29//24 48//24
f 42//25 28//25 27//25 47//25
f 41//26 26//26 25//26 46//26
f 15//27 1//27 33//27 40//27
f 13//28 15//28 40//28 39//28
f 11//29 13//29 39//29 38//29
f 9//30 11//30 38//30 37//30
f 7//31 9//31 37//31 36//31
f 5//32 7//32 36//32 35//32
f 3//33 5//33 35//33 34//33
f 1//34 3//34 34//34 33//34
f 12//35 50//35 53//35 43//35
f 6//36 42//36 47//36 4//36
f 12//37 43//37 48//37 10//37
f 2//38 44//38 41//38 16//38
f 44//39 87//39 88//39 47//39
f 82//40 61//40 62//40 81//40
f 14//41 49//41 50//41 12//41
f 80//42 64//42 65//42 79//42
f 52//43 58//43 57//43 51//43
f 53//44 59//44 60//44 54//44
f 41//45 52//45 51//45 16//45
f 43//46 53//46 54//46 46//46
f 16//47 51//47 49//47 14//47
f 46//48 54//48 52//48 41//48
f 57//49 58//49 60//49 55//49
f 55//50 60//50 59//50 56//50
f 49//51 55//51 56//51 50//51
f 54//52 60//52 58//52 52//52
f 50//53 56//53 59//53 53//53
f 51//54 57//54 55//54 49//54
f 73//55 72//55 69//55 75//55
f 74//56 71//56 72//56 73//56
f 81//57 62//57 64//57 80//57
f 84//58 66//58 63//58 83//58
f 83//59 63//59 61//59 82//59
f 79//60 65//60 66//60 84//60
f 67//61 71//61 70//61 68//61
f 69//62 72//62 71//62 67//62
f 77//63 68//63 70//63 76//63
f 78//64 67//64 68//64 77//64
f 76//65 70//65 71//65 74//65
f 75//66 69//66 67//66 78//66
f 63//67 75//67 78//67 61//67
f 64//68 76//68 74//68 65//68
f 61//69 78//69 77//69 62//69
f 62//70 77//70 76//70 64//70
f 65//71 74//71 73//71 66//71
f 66//72 73//72 75//72 63//72
f 45//73 79//73 84//73 48//73
f 10//74 83//74 82//74 8//74
f 48//75 84//75 83//75 10//75
f 6//76 81//76 80//76 42//76
f 42//77 80//77 79//77 45//77
f 8//78 82//78 81//78 6//78
f 94//79 92//79 89//79 93//79
f 2//80 86//80 87//80 44//80
f 4//81 85//81 86//81 2//81
f 47//82 88//82 85//82 4//82
f 89//83 92//83 91//83 90//83
f 93//84 89//84 90//84 95//84
f 96//85 91//85 92//85 94//85
f 95//86 90//86 91//86 96//86
f 86//87 95//87 96//87 87//87
f 87//88 96//88 94//88 88//88
f 85//89 93//89 95//89 86//89
f 88//90 94//90 93//90 85//90
f 29//91 99//91 104//91 32//91
f 102//92 107//92 110//92 97//92
f 32//93 104//93 101//93 28//93
f 27//94 98//94 103//94 31//94
f 31//95 103//95 100//95 26//95
f 30//96 102//96 99//96 29//96
f 28//97 101//97 98//97 27//97
f 100//98 105//98 106//98 26//98
f 120//99 115//99 114//99 119//99
f 118//100 116//100 111//100 117//100
f 26//101 106//101 109//101 25//101
f 25//102 109//102 108//102 30//102
f 97//103 110//103 105//103 100//103
f 30//104 108//104 107//104 102//104
f 115//105 116//105 113//105 114//105
f 112//106 111//106 116//106 115//106
f 117//107 111//107 112//107 121//107
f 122//108 113//108 116//108 118//108
f 121//109 112//109 115//109 120//109
f 119//110 114//110 113//110 122//110
f 108//111 119//111 122//111 107//111
f 106//112 121//112 120//112 109//112
f 107//113 122//113 118//113 110//113
f 105//114 117//114 121//114 106//114
f 110//115 118//115 117//115 105//115
f 109//116 120//116 119//116 108//116
f 40//9 33//9 123//9 130//9
f 39//8 40//8 130//8 129//8
f 38//6 39//6 129//6 128//6
f 37//117 38//117 128//117 127//117
f 36//4 37//4 127//4 126//4
f 35//3 36//3 126//3 125//3
f 34//118 35//118 125//118 124//118
f 33//1 34//1 124//1 123//1
f 134//119 138//119 137//119 133//119
f 124//120 133//120 132//120 4//120
f 6//121 131//121 134//121 125//121
f 4//122 132//122 131//122 6//122
f 137//123 141//123 140//123 136//123
f 133//124 137//124 136//124 132//124
f 131//125 135//125 138//125 134//125
f 132//126 136//126 135//126 131//126
f 139//127 143//127 146//127 142//127
f 135//128 139//128 142//128 138//128
f 136//129 140//129 139//129 135//129
f 138//130 142//130 141//130 137//130
f 145//131 146//131 143//131 144//131
f 140//132 144//132 143//132 139//132
f 142//133 146//133 145//133 141//133
f 141//134 145//134 144//134 140//134
